<?xml version="1.0" encoding="UTF-8" standalone="no"?>
<!-- Created with Inkscape (http://www.inkscape.org/) -->

<svg
   xmlns:dc="http://purl.org/dc/elements/1.1/"
   xmlns:cc="http://creativecommons.org/ns#"
   xmlns:rdf="http://www.w3.org/1999/02/22-rdf-syntax-ns#"
   xmlns:svg="http://www.w3.org/2000/svg"
   xmlns="http://www.w3.org/2000/svg"
   xmlns:sodipodi="http://sodipodi.sourceforge.net/DTD/sodipodi-0.dtd"
   xmlns:inkscape="http://www.inkscape.org/namespaces/inkscape"
   width="98"
   height="98"
   id="svg3200"
   sodipodi:version="0.32"
   inkscape:version="0.48.0 r9654"
   version="1.0"
   sodipodi:docname="logo.svg"
   inkscape:output_extension="org.inkscape.output.svg.inkscape"
   inkscape:export-filename="C:\workspace\GetVelo\res\drawable-ldpi\icon.png"
   inkscape:export-xdpi="33.060001"
   inkscape:export-ydpi="33.060001">
  <defs
     id="defs3202">
    <inkscape:perspective
       sodipodi:type="inkscape:persp3d"
       inkscape:vp_x="0 : 526.18109 : 1"
       inkscape:vp_y="0 : 1000 : 0"
       inkscape:vp_z="744.09448 : 526.18109 : 1"
       inkscape:persp3d-origin="372.04724 : 350.78739 : 1"
       id="perspective3208" />
    <inkscape:perspective
       id="perspective2458"
       inkscape:persp3d-origin="372.04724 : 350.78739 : 1"
       inkscape:vp_z="744.09448 : 526.18109 : 1"
       inkscape:vp_y="0 : 1000 : 0"
       inkscape:vp_x="0 : 526.18109 : 1"
       sodipodi:type="inkscape:persp3d" />
    <inkscape:perspective
       id="perspective2532"
       inkscape:persp3d-origin="372.04724 : 350.78739 : 1"
       inkscape:vp_z="744.09448 : 526.18109 : 1"
       inkscape:vp_y="0 : 1000 : 0"
       inkscape:vp_x="0 : 526.18109 : 1"
       sodipodi:type="inkscape:persp3d" />
    <inkscape:perspective
       id="perspective2680"
       inkscape:persp3d-origin="372.04724 : 350.78739 : 1"
       inkscape:vp_z="744.09448 : 526.18109 : 1"
       inkscape:vp_y="0 : 1000 : 0"
       inkscape:vp_x="0 : 526.18109 : 1"
       sodipodi:type="inkscape:persp3d" />
    <inkscape:perspective
       id="perspective2749"
       inkscape:persp3d-origin="372.04724 : 350.78739 : 1"
       inkscape:vp_z="744.09448 : 526.18109 : 1"
       inkscape:vp_y="0 : 1000 : 0"
       inkscape:vp_x="0 : 526.18109 : 1"
       sodipodi:type="inkscape:persp3d" />
    <inkscape:perspective
       sodipodi:type="inkscape:persp3d"
       inkscape:vp_x="0 : 526.18109 : 1"
       inkscape:vp_y="0 : 1000 : 0"
       inkscape:vp_z="744.09448 : 526.18109 : 1"
       inkscape:persp3d-origin="372.04724 : 350.78739 : 1"
       id="perspective2474" />
    <inkscape:perspective
       id="perspective10"
       inkscape:persp3d-origin="372.04724 : 350.78739 : 1"
       inkscape:vp_z="744.09448 : 526.18109 : 1"
       inkscape:vp_y="0 : 1000 : 0"
       inkscape:vp_x="0 : 526.18109 : 1"
       sodipodi:type="inkscape:persp3d" />
    <filter
       inkscape:collect="always"
       id="filter3810">
      <feGaussianBlur
         inkscape:collect="always"
         stdDeviation="1.743125"
         id="feGaussianBlur3812" />
    </filter>
    <filter
       inkscape:collect="always"
       id="filter3843">
      <feGaussianBlur
         inkscape:collect="always"
         stdDeviation="1.7431251"
         id="feGaussianBlur3845" />
    </filter>
  </defs>
  <sodipodi:namedview
     id="base"
     pagecolor="#ffffff"
     bordercolor="#666666"
     borderopacity="1.0"
     gridtolerance="10000"
     guidetolerance="10"
     objecttolerance="10"
     inkscape:pageopacity="0.0"
     inkscape:pageshadow="2"
     inkscape:zoom="5.6"
     inkscape:cx="60.235742"
     inkscape:cy="40.839792"
     inkscape:document-units="px"
     inkscape:current-layer="layer3"
     showgrid="false"
     inkscape:window-width="1680"
     inkscape:window-height="1000"
     inkscape:window-x="0"
     inkscape:window-y="25"
     showguides="true"
     inkscape:guide-bbox="true"
     inkscape:window-maximized="0">
    <sodipodi:guide
       orientation="0,1"
       position="64.642857,7.8571429"
       id="guide3174" />
    <sodipodi:guide
       orientation="0,1"
       position="108.57143,103.21429"
       id="guide3176" />
  </sodipodi:namedview>
  <metadata
     id="metadata3205">
    <rdf:RDF>
      <cc:Work
         rdf:about="">
        <dc:format>image/svg+xml</dc:format>
        <dc:type
           rdf:resource="http://purl.org/dc/dcmitype/StillImage" />
        <dc:title></dc:title>
      </cc:Work>
    </rdf:RDF>
  </metadata>
  <g
     inkscape:groupmode="layer"
     id="layer3"
     inkscape:label="shadow">
    <path
       style="font-size:72px;font-style:normal;font-variant:normal;font-weight:normal;font-stretch:normal;fill:#1a1a1a;fill-opacity:1;stroke:none;display:inline;font-family:DNR Recreation Symbols;filter:url(#filter3843)"
       d="m 58.921876,11.142857 c -2.03155,9.2e-5 -3.81102,0.748555 -5.3125,2.25 -1.41327,1.4133 -2.12505,3.124845 -2.125,5.15625 -5e-5,2.031574 0.71173,3.811045 2.125,5.3125 1.50148,1.41329 3.28095,2.093827 5.3125,2.09375 2.11975,7.7e-5 3.86797,-0.68046 5.28125,-2.09375 1.50147,-1.41313 2.24993,-3.1926 2.25,-5.3125 -7e-5,-2.11973 -0.74853,-3.899201 -2.25,-5.3125 -1.41328,-1.41312 -3.1615,-2.093658 -5.28125,-2.09375 z m -10.875,11.25 c -1.94321,8.1e-5 -3.40346,0.711871 -4.375,2.125 l -14.3125,14.03125 c -1.148266,1.148299 -1.71878,2.749821 -1.71875,4.78125 -3e-5,2.649827 0.853031,4.398049 2.53125,5.28125 l 16.15625,8.875 -0.125,16.1875 c -5e-5,2.649798 1.31893,3.968776 3.96875,3.96875 2.73804,2.6e-5 4.0937,-1.318952 4.09375,-3.96875 l 0,-19.875 c -5e-5,-1.059857 -0.49722,-2.44676 -1.46875,-4.125 l -10.84375,-5.8125 8.75,-8.875 3.6875,7.15625 c 0.5299,0.971643 1.45631,1.437562 2.78125,1.4375 l 10.625,0 c 2.20807,6.2e-5 3.31243,-1.067623 3.3125,-3.1875 -7e-5,-2.208077 -1.06775,-3.281184 -3.1875,-3.28125 l -8.875,0 -6.625,-12.46875 c -1.05996,-1.501456 -2.52021,-2.249919 -4.375,-2.25 z m 34.53125,17.15625 -16.1875,9 0,6.84375 c -1.42231,0.857787 -2.76965,1.894648 -4.03125,3.15625 -3.88639,3.88637 -5.84381,8.623018 -5.84375,14.1875 -6e-5,5.564543 1.95736,10.337863 5.84375,14.3125 1.25971,1.231744 2.61131,2.254731 4.03125,3.09375 l 0,2.687504 9.59375,0 c 0.22911,0.007 0.45564,0.0312 0.6875,0.0312 0.23541,0 0.45516,-0.0243 0.6875,-0.0312 l 5.21875,0 0,-0.78125 c 3.07862,-0.905881 5.82099,-2.57104 8.25,-5.000004 3.97456,-3.974636 5.968654,-8.747956 5.968754,-14.3125 -9e-5,-5.564483 -1.994194,-10.301129 -5.968754,-14.1875 -2.42901,-2.484129 -5.17138,-4.169356 -8.25,-5.09375 l 0,-13.90625 z m -58.25,13.0625 c -5.564541,5.3e-5 -10.33786,1.962894 -14.3125,5.9375 -3.886339,3.88637 -5.8125073,8.623018 -5.8125003,14.1875 -7e-6,5.564543 1.9261613,10.337863 5.8125003,14.3125 3.97464,3.886344 8.747959,5.812514 14.3125,5.812504 5.564485,1e-5 10.301133,-1.926161 14.1875,-5.812504 3.97461,-3.974636 5.93745,-8.747956 5.9375,-14.3125 -5e-5,-5.564483 -1.96289,-10.301129 -5.9375,-14.1875 -3.886369,-3.974607 -8.623015,-5.937448 -14.1875,-5.9375 z m 0,3.8125 c 4.504578,4.6e-5 8.35149,1.60157 11.53125,4.78125 3.17968,3.179764 4.74996,7.026674 4.75,11.53125 -4e-5,4.504635 -1.57032,8.351547 -4.75,11.53125 -3.17976,3.179739 -7.026672,4.750016 -11.53125,4.75 -4.504632,1.6e-5 -8.351543,-1.570259 -11.53125,-4.75 -3.179736,-3.179705 -4.781261,-7.026614 -4.78125,-11.53125 -1.1e-5,-4.504577 1.601514,-8.351488 4.78125,-11.53125 3.179707,-3.179678 7.026618,-4.781202 11.53125,-4.78125 z m 58.25,1.0625 c 2.04796,0.795249 3.91016,2.035229 5.59375,3.71875 3.17964,3.179764 4.78116,7.026674 4.78125,11.53125 -1e-4,4.504635 -1.60162,8.351547 -4.78125,11.53125 -1.68299,1.682951 -3.54666,2.90046 -5.59375,3.6875 l 0,-30.46875 z m -16.1875,2.5625 0,25.375 c -0.43027,-0.355308 -0.84171,-0.747951 -1.25,-1.15625 -3.17979,-3.179705 -4.78131,-7.026614 -4.78125,-11.53125 -6e-5,-4.504577 1.60146,-8.351488 4.78125,-11.53125 0.40829,-0.408291 0.81973,-0.80005 1.25,-1.15625 z"
       id="path3555-1"
       inkscape:connector-curvature="0" />
  </g>
  <g
     inkscape:label="Bike"
     inkscape:groupmode="layer"
     id="layer1"
     style="display:inline">
    <text
       xml:space="preserve"
       style="font-style:normal;font-variant:normal;font-weight:normal;font-stretch:normal;fill:#000000;fill-opacity:1;stroke:none;stroke-width:1px;stroke-linecap:butt;stroke-linejoin:miter;stroke-opacity:1;font-family:RoadSign"
       x="-35.535702"
       y="68.785698"
       id="text3301"><tspan
         sodipodi:role="line"
         id="tspan3303"
         x="-35.535702"
         y="68.785698" /></text>
    <text
       xml:space="preserve"
       style="font-size:72px;font-style:normal;font-variant:normal;font-weight:normal;font-stretch:normal;fill:#000000;fill-opacity:1;stroke:none;stroke-width:1px;stroke-linecap:butt;stroke-linejoin:miter;stroke-opacity:1;font-family:RoadSign"
       x="-14.2857"
       y="63.25"
       id="text3305"><tspan
         sodipodi:role="line"
         id="tspan3307"
         x="-14.2857"
         y="63.25" /></text>
    <text
       xml:space="preserve"
       style="font-size:72px;font-style:normal;font-variant:normal;font-weight:normal;font-stretch:normal;fill:#000000;fill-opacity:1;stroke:none;stroke-width:1px;stroke-linecap:butt;stroke-linejoin:miter;stroke-opacity:1;font-family:RoadSign"
       x="-10.5357"
       y="52.535702"
       id="text3309"><tspan
         sodipodi:role="line"
         id="tspan3311"
         x="-10.5357"
         y="52.535702" /></text>
    <path
       style="font-size:72px;font-style:normal;font-variant:normal;font-weight:normal;font-stretch:normal;fill:#249bd3;fill-opacity:1;stroke:none;stroke-width:1px;stroke-linecap:butt;stroke-linejoin:miter;stroke-opacity:1;font-family:DNR Recreation Symbols"
       d="M 65.192751,15.873641 C 65.192681,13.753911 64.441914,11.987399 62.940446,10.5741 C 61.527169,9.1609799 59.760657,8.4543749 57.640904,8.4542829 C 55.609355,8.4543749 53.842842,9.2051429 52.341363,10.706588 C 50.928096,12.119888 50.221492,13.842236 50.221546,15.873641 C 50.221492,17.905215 50.928096,19.671728 52.341363,21.173183 C 53.842842,22.586473 55.609355,23.293077 57.640904,23.293 C 59.760657,23.293077 61.527169,22.586473 62.940446,21.173183 C 64.441914,19.760053 65.192681,17.993541 65.192751,15.873641"
       id="path3555" />
    <path
       style="font-size:72px;font-style:normal;font-variant:normal;font-weight:normal;font-stretch:normal;fill:#cd071e;fill-opacity:1;stroke:none;stroke-width:1px;stroke-linecap:butt;stroke-linejoin:miter;stroke-opacity:1;font-family:DNR Recreation Symbols"
       d="M 75.40625 49.9375 C 69.841656 49.937553 65.068338 51.900394 61.09375 55.875 C 57.207359 59.76137 55.249941 64.498018 55.25 70.0625 C 55.249941 75.627043 57.207359 80.400363 61.09375 84.375 C 65.068338 88.261344 69.841658 90.187512 75.40625 90.1875 C 80.970682 90.187509 85.67608 88.261343 89.5625 84.375 C 93.53706 80.400364 95.53115 75.627044 95.53125 70.0625 C 95.531154 64.498017 93.537059 59.761371 89.5625 55.875 C 85.676081 51.900393 80.970684 49.937552 75.40625 49.9375 z M 75.40625 53.75 C 79.910775 53.750046 83.726437 55.35157 86.90625 58.53125 C 90.085885 61.711014 91.687404 65.557924 91.6875 70.0625 C 91.687403 74.567135 90.085882 78.414047 86.90625 81.59375 C 83.72644 84.773489 79.910777 86.343766 75.40625 86.34375 C 70.901562 86.343766 67.054654 84.773491 63.875 81.59375 C 60.695209 78.414045 59.093688 74.567136 59.09375 70.0625 C 59.093688 65.557923 60.695211 61.711012 63.875 58.53125 C 67.054652 55.351572 70.901564 53.750048 75.40625 53.75 z "
       id="path3553" />
    <path
       style="font-size:72px;font-style:normal;font-variant:normal;font-weight:normal;font-stretch:normal;fill:#249bd3;fill-opacity:1;stroke:none;stroke-width:1px;stroke-linecap:butt;stroke-linejoin:miter;stroke-opacity:1;font-family:DNR Recreation Symbols"
       d="M 69.82985,37.734251 C 69.829777,35.526174 68.76987,34.422103 66.650125,34.422037 L 57.773392,34.422037 L 51.148966,21.968115 C 50.089004,20.466659 48.631631,19.715891 46.776844,19.71581 C 44.833631,19.715891 43.376258,20.422496 42.404722,21.835625 L 28.095961,35.879411 C 26.947695,37.02771 26.37358,38.61757 26.37361,40.648999 C 26.37358,43.298826 27.212672,45.065339 28.890891,45.94854 L 45.054493,54.825272 L 44.922005,70.988874 C 44.921956,73.638672 46.24684,74.963556 48.896661,74.96353 C 51.634703,74.963556 53.003749,73.638672 53.003805,70.988874 L 53.003805,51.115594 C 53.003749,50.055737 52.517958,48.686688 51.546431,47.008448 L 40.682371,41.178953 L 49.426615,32.30222 L 53.136294,39.456602 C 53.666192,40.428245 54.593609,40.914037 55.918553,40.913975 L 66.517636,40.913975 C 68.725707,40.914037 69.829777,39.854128 69.82985,37.734251"
       id="path3551" />
    <path
       style="font-size:72px;font-style:normal;font-variant:normal;font-weight:normal;font-stretch:normal;fill:#cd071e;fill-opacity:1;stroke:none;stroke-width:1px;stroke-linecap:butt;stroke-linejoin:miter;stroke-opacity:1;font-family:DNR Recreation Symbols"
       d="M 23.0625 49.9375 C 17.497959 49.937553 12.72464 51.900394 8.75 55.875 C 4.8636608 59.76137 2.9374923 64.498018 2.9375 70.0625 C 2.9374923 75.627043 4.8636605 80.400363 8.75 84.375 C 12.72464 88.261344 17.497959 90.187512 23.0625 90.1875 C 28.626985 90.187509 33.363633 88.261343 37.25 84.375 C 41.224611 80.400364 43.187451 75.627044 43.1875 70.0625 C 43.187451 64.498017 41.224613 59.761371 37.25 55.875 C 33.363631 51.900393 28.626985 49.937552 23.0625 49.9375 z M 23.0625 53.75 C 27.567078 53.750046 31.41399 55.35157 34.59375 58.53125 C 37.773433 61.711014 39.343708 65.557924 39.34375 70.0625 C 39.343707 74.567135 37.773433 78.414047 34.59375 81.59375 C 31.41399 84.773489 27.567078 86.343766 23.0625 86.34375 C 18.557868 86.343766 14.710957 84.773491 11.53125 81.59375 C 8.3515138 78.414045 6.7499885 74.567136 6.75 70.0625 C 6.7499885 65.557923 8.3515138 61.711012 11.53125 58.53125 C 14.710957 55.351572 18.557868 53.750048 23.0625 53.75 z "
       id="path3549" />
  </g>
  <g
     inkscape:groupmode="layer"
     id="layer2"
     inkscape:label="Rack"
     style="display:inline">
    <path
       style="fill:#cd071e;fill-opacity:1;fill-rule:evenodd;stroke:#cd071e;stroke-width:0;stroke-linecap:butt;stroke-linejoin:miter;stroke-miterlimit:4;stroke-opacity:1;stroke-dasharray:none"
       d="m 81.313001,36.861247 0,53.28161 -16.19743,0 0,-44.258112 16.19743,-9.023498 z"
       id="path3180"
       inkscape:connector-curvature="0" />
  </g>
</svg>
